<?xml version="1.0" encoding="UTF-8"?>
<svg id="Layer_1" data-name="Layer 1" xmlns="http://www.w3.org/2000/svg" viewBox="0 0 160 160">
  <defs>
    <style>
      .cls-1 {
        fill: #fff;
        stroke: #b3b3b3;
        stroke-miterlimit: 10;
        stroke-width: 1.59px;
      }
    </style>
  </defs>
  <path class="cls-1" d="M147.53,84.31c0,13.54-11.18,24.55-24.95,24.55-.89,0-1.74-.03-2.59-.13-1.38,7.57-9.64,13.38-19.7,13.38-4.75,0-9.08-1.31-12.52-3.47-4.59,7.93-13.34,13.31-23.44,13.31-13.9,0-25.34-10.16-26.68-23.18-14.1-1.02-25.18-12.36-25.18-26.16,0-14.52,12.2-26.29,27.24-26.29.33,0,.66.03,1.02.07,2.92-16.1,16.95-28.32,33.9-28.32,10.88,0,20.59,5.08,26.91,12.95,2-.92,4.23-1.44,6.59-1.44,8.92,0,16.13,7.31,16.13,16.29,0,1.38-.2,2.69-.52,3.93,13.24.59,23.8,11.34,23.8,24.52Z"/>
</svg>